<svg xmlns="http://www.w3.org/2000/svg" id="Calque_2" data-name="Calque 2" viewBox="0 0 82.41 39.35"><defs><style>.cls-1{fill:#a9972b}.cls-4{stroke-miterlimit:10}.cls-4,.cls-5{fill:#eace3a}.cls-4{stroke:#c688bb;stroke-width:.25px}.cls-7{fill:#976a8f}.cls-8{fill:#c797c5}.cls-9{fill:#c688bb}</style></defs><g id="Calque_1-2" data-name="Calque 1"><rect width="80.5" height="37.34" x=".95" y="1.01" rx="2.63" ry="2.63" style="fill:#fff;stroke:#1d1d1b;stroke-width:.5px;stroke-miterlimit:10"/><path d="M3.6.18h1.66v1.66H3.6zM.12 3.6h1.66v1.66H.12zM80.61 34.08h1.66v1.66h-1.66zM77.13 37.49h1.66v1.66h-1.66zM77.2 1.79V.13h1.66v1.66zM80.62 5.26V3.6h1.66v1.66zM.23 35.75v-1.66h1.66v1.66zM3.66 39.23v-1.66h1.66v1.66z" class="cls-4"/><path d="M15.8 18.22c1.55 0 3.39-.2 5.23-.2 2.07 0 2.72.55 2.72 1.45 0 .68-.62 1.08-1.21 1.17-.29.04-.47.13-.47.3 0 .19.19.28.47.28 1.12 0 1.76.65 1.76 1.67 0 1.23-1.14 2.05-2.94 2.05-1.56 0-2.4-.11-3.28-.11s-1.65.02-2.28.11c.32-2.43.32-4.91 0-6.71Zm4.09 4.72c.3 0 .52-.32.52-.69 0-.47-.22-.84-.52-.84-.32 0-.5.36-.5.84 0 .37.18.69.5.69m0-2.4c.34 0 .48-.26.48-.62 0-.4-.14-.74-.48-.74s-.46.34-.46.74c0 .35.11.62.46.62M26.5 18.22h5.67c.22 1.87 1.65 4.07 1.98 6.6H29.4c.11-1.05.14-1.65.14-2.1 0-.41-.18-.67-.48-.67s-.48.26-.48.67c0 .45.04 1.06.14 2.1h-3.86c.33-2.55 1.98-4.74 1.65-6.6Zm2.55 2.79c.34 0 .48-.32.48-.74 0-.51-.12-.94-.46-.94s-.48.43-.48.94c0 .42.11.74.46.74M40.03 20.29c-.42 0-.66.19-.66.62 0 .91.5 2.19.64 3.92h-4.57c.14-1.82.64-2.97.64-3.92 0-.43-.21-.62-.64-.62s-1.04.14-1.54.33l-.11-2.4h7.87l-.11 2.4c-.44-.19-1.07-.33-1.52-.33M48.42 20.29c-.42 0-.66.19-.66.62 0 .91.5 2.19.64 3.92h-4.57c.14-1.82.64-2.97.64-3.92 0-.43-.21-.62-.64-.62s-1.04.14-1.54.33l-.11-2.4h7.87l-.11 2.4c-.44-.19-1.07-.33-1.52-.33M50.58 18.22h4.2c.03 1.3-.53 2.61-.53 3.47 0 .33.2.55.68.55.77 0 1.83-.29 2.71-.64l.13 3.22h-7.2q.495-3.795 0-6.6ZM58.4 18.22h7.61l-.15 1.97c-.77-.25-2-.38-2.88-.38-.69 0-.91.14-.91.43 0 .22.18.34.45.34.44 0 1.85-.2 2.78-.2v1.53c-1.06 0-2.39-.15-2.85-.15-.23 0-.37.13-.37.34 0 .28.2.41 1.01.41.77 0 2.05-.13 2.93-.35l.24 2.67H58.4q.495-3.795 0-6.6Z" class="cls-5"/><path d="M28.98 14.02h2.94c-.1.76-.15 1.24-.15 1.65 0 .31.13.53.35.53s.35-.22.35-.53c0-.41-.05-.89-.15-1.65h1.85c-.1.76-.15 1.24-.15 1.65 0 .31.13.53.35.53s.35-.22.35-.53c0-.41-.05-.89-.15-1.65h2.61c-.24 1.85-1.44 3.45-1.44 4.8h-2.55c.12-.76.17-1.34.17-1.68s-.1-.56-.34-.56-.37.25-.37.64c0 .28.02.84.1 1.6h-2.66c-.16-1.36-.88-2.96-1.12-4.8ZM40.57 18.82h-3q.36-2.76 0-4.8h3q-.36 2.04 0 4.8M41.14 16.24c0-.8-.06-1.54-.18-2.21h3.79c1.32 0 2.17.54 2.17 1.46 0 .78-.66 1.28-1.61 1.28-.14 0-.26-.02-.38-.02-.08 0-.13.05-.13.11 0 .25.37.34.66.34.57 0 1.14-.25 1.45-.5h.03c.1.25.14.54.14.81 0 .83-.64 1.49-1.54 1.49-.84 0-1.32-.32-1.52-1.41-.04-.21-.12-.3-.23-.3-.1 0-.15.08-.15.2 0 .29.06.79.15 1.35h-2.84q.18-1.38.18-2.58Zm2.85.21c.25 0 .4-.23.4-.54 0-.37-.14-.68-.38-.68s-.39.31-.39.68c0 .3.12.54.38.54ZM47.39 14.02h5.53l-.11 1.43c-.56-.18-1.46-.28-2.1-.28-.5 0-.66.1-.66.31 0 .16.13.25.33.25.32 0 1.34-.14 2.02-.14v1.11c-.77 0-1.74-.11-2.07-.11-.17 0-.27.1-.27.25 0 .2.14.3.74.3.56 0 1.49-.1 2.13-.26l.18 1.94H47.4q.36-2.76 0-4.8Z" class="cls-9"/><path d="M64.74 24.56c-.05-.25.22-.45.44-.32l8.99 5.15c.23.13.19.47-.06.55l-4.36 1.34c-.07.02-.13.06-.16.12l-2.18 3.36c-.15.23-.49.16-.55-.1l-2.11-10.11Z" class="cls-5"/><path d="m74.02 29.65-4.36 1.34a.6.6 0 0 0-.33.25l-2.18 3.36-2.11-10.11 8.99 5.15Z" style="stroke-miterlimit:10;fill:none;stroke-width:.75px;stroke:#c688bb"/><path d="m14.7 12.4-.46.32-1.01 4.78 1.04.19.75-4.83z" class="cls-5"/><path d="m14.7 12.4-.95 5.19.52.1.75-4.83z" style="fill:#c2ac31"/><path d="m12.922 17.713.047-.256 1.555.283-.047.256zM12.688 19.012l.047-.256 1.554.283-.046.256z" class="cls-1"/><path d="m13.132 18.823.19-1.043.777.141-.19 1.043z" class="cls-5"/><path d="m10.71 15.16.31.46 4.79 1.01.19-1.04-4.83-.75z" class="cls-9"/><path d="m15.761 16.883.283-1.555.256.047-.283 1.554zM17.06 17.125l.284-1.554.255.046-.283 1.555z" class="cls-7"/><path d="m10.71 15.16 5.19.95.1-.52-4.83-.75zM16.094 16.54l.141-.778 1.043.19-.141.778z" class="cls-8"/><path d="m14.09 17.92-.77-.14.63.92z" class="cls-1"/><path d="m16.23 15.76-.14.78.78.14z" class="cls-9"/><path d="m14.33 17.32.15-.97-.48-.11-.09.47z" class="cls-1"/></g></svg>